PathFileType	4	(X/Y/Z)	C:/Users/beibeiliu/ov580/test_trc\sequence.33_training_dense_left.trc
DataRate	CameraRate	NumFrames	NumMarkers	Units	OrigDataRate	OrigDataStartFrame	OrigNumFrames
120	120	10	19	mm	120	1	96
Frame#	Time	ThumbCMC			ThumbMCP			ThumbIP			ThumbTip			IndexMCP			IndexPIP			IndexTip			MiddleMCP			MiddlePIP			MiddleTip			RingMCP			RingPIP			RingTip			PinkyMCP			PinkyPIP			PinkyTip			BackHand1			BackHand2			BackHand3	
		X0	Y0	Z0	X1	Y1	Z1	X2	Y2	Z2	X3	Y3	Z3	X4	Y4	Z4	X5	Y5	Z5	X6	Y6	Z6	X7	Y7	Z7	X8	Y8	Z8	X9	Y9	Z9	X10	Y10	Z10	X11	Y11	Z11	X12	Y12	Z12	X13	Y13	Z13	X14	Y14	Z14	X15	Y15	Z15	X16	Y16	Z16	X17	Y17	Z17	X18	Y18	Z18	
0	0	-245.214	18.5643	94.7535	-245.063	26.4597	70.4324	-258.913	36.4002	48.9031	-269.9	43.8482	28.9009	-260.97	-20.2962	32.0366	-266.147	-20.7198	10.034	-280.565	-29.957	-12.8293	-243.753	-43.0883	26.9141	-237.721	-50.6822	3.85961	-232.896	-61.1832	-21.5626	-220.186	-49.844	30.9706	-206.6	-50.4128	15.338	-189.58	-49.9589	-5.22492	-200.426	-51.9798	49.1445	-183.664	-36.6597	45.6422	-169.041	-10.8411	47.3821	-242.588	-49.4446	83.873	-239.458	-38.5159	118.757	-256.045	-17.9057	94.0351	
1	0.00833333	-225.015	32.8562	97.3621	-222.902	45.0785	74.7252	-229.072	54.7762	53.1493	-235.326	71.4257	34.5447	-253.044	11.312	30.9469	-258.747	13.0539	6.47029	-270.581	11.2089	-16.2371	-246.795	-14.7102	22.5647	-243.866	-20.7151	3.10865	-241.442	-31.6497	-25.932	-228.649	-34.7525	29.869	-215.114	-33.9241	11.0517	-196.723	-38.9925	-14.0733	-213.987	-41.3852	47.92	-184.177	-30.6331	44.5594	-163.936	-17.5434	48.7211	-247.802	-28.4739	84.2242	-245.273	-21.1739	113.76	-249.068	6.95565	92.4268	
2	0.0166667	-198.743	44.9577	103.589	-191.245	55.4489	82.6924	-192.141	75.0452	57.6541	-190.603	86.5527	45.4439	-228.996	49.2002	29.8842	-232.622	49.1876	10.3748	-240.495	57.3141	-10.9784	-236.9	17.7953	25.7562	-234.511	13.9962	1.06106	-234.782	9.5696	-26.5387	-228.075	-1.54565	28.6144	-212.699	-11.3524	4.8067	-199.638	-20.8171	-15.9426	-217.341	-22.3394	42.792	-188.481	-23.4632	43.0408	-164.36	-16.5687	51.3047	-246.549	1.23879	81.2699	-240.088	3.9647	111.349	-232.087	31.3521	96.7033	
3	0.025	-171.246	52.5251	104.544	-160.482	57.5804	85.9647	-151.757	74.5943	66.8302	-142.95	86.9934	56.17	-194.902	68.0585	34.3872	-192.868	77.1049	12.5327	-201.176	80.3713	-6.14642	-211.235	47.4331	28.464	-211.341	42.9394	0.336672	-213.342	39.2255	-26.1019	-212.097	24.3347	25.8873	-203.122	11.126	5.05336	-193.489	2.43154	-13.2961	-213.08	4.7743	41.861	-186.934	-8.73732	38.7598	-161.944	-17.5184	49.5892	-230.189	31.7779	77.7479	-230.257	26.1156	109.493	-206.912	52.6714	96.5202	
4	0.0333333	-151.774	42.1112	111.495	-133.297	48.7371	90.7207	-116.378	61.1592	76.8556	-102.486	71.4088	65.3122	-157.223	70.3333	41.6934	-154.149	75.0931	20.8493	-153.647	86.1776	-0.48973	-179.599	58.2059	24.3718	-178.099	53.1943	-0.430113	-179.911	51.4547	-23.2552	-193.946	32.8957	27.0166	-183.16	21.0658	4.1704	-176.838	5.75181	-16.0385	-201.283	12.3194	38.9628	-180.724	-2.92944	38.0819	-160.738	-21.8248	51.8385	-209.736	48.8476	77.9845	-207.797	44.7837	108.306	-181.002	57.3177	98.0919	
5	0.0416667	-138.707	33.8676	111.865	-119.776	33.1397	97.1898	-99.5509	41.6287	79.4867	-80.493	46.8844	72.9118	-131.685	54.45	45.1362	-127.502	57.1614	18.5058	-121.064	65.1306	1.24448	-159.397	44.0192	25.8372	-154.301	38.6305	3.74819	-156.054	32.8641	-22.6829	-176.267	26.3266	27.6507	-168.896	8.70045	7.04074	-163.699	-7.84387	-8.66326	-187.882	11.728	39.2147	-174.789	-9.85953	40.7323	-161.769	-30.2603	61.0902	-189.138	49.563	80.1552	-195.729	46.1573	107.948	-160.511	52.9294	100.374	
6	0.05	-131.28	28.3641	116.92	-111.094	23.0694	103.767	-93.391	23.4026	90.4154	-73.7377	27.6399	81.1067	-120.25	34.531	41.491	-109.461	31.7033	26.8305	-104.092	36.2996	3.16119	-146.555	23.3316	27.1843	-139.804	13.9247	10.3297	-137.517	3.76143	-18.5834	-160.875	11.9734	33.4479	-157.417	-10.5995	17.1106	-148.255	-35.2995	2.27059	-181.313	-2.6038	43.3833	-168.539	-28.1486	53.8673	-159.707	-40.6089	77.2269	-178.031	41.1021	78.1743	-189.922	45.178	105.757	-155.36	47.981	99.5129	
7	0.0583333	-131.881	32.1653	123.42	-110.675	24.2891	111.178	-85.9857	27.1007	94.9382	-68.1953	29.2405	90.6685	-113.647	23.3088	46.2339	-99.5966	16.7533	27.6163	-96.1009	16.8569	7.4194	-136.506	6.50724	32.7628	-130.331	-7.96577	17.7441	-120.192	-25.6572	-7.49984	-152.32	-5.21451	39.0238	-149.359	-32.1883	29.9105	-140.01	-56.8109	26.2742	-171.785	-19.1282	50.9997	-161.391	-36.8597	65.7062	-150.89	-44.0201	96.7424	-179.546	32.4	73.9547	-187.529	41.5856	99.6872	-150.578	46.5101	96.4779	
8	0.0666667	-133.176	41.2082	121.949	-110.698	36.421	111.574	-90.3146	38.8948	98.2453	-68.4752	45.8696	88.9041	-110.66	19.6475	53.7235	-94.7219	10.2369	34.4299	-82.5989	7.17192	14.0673	-128.231	-1.53108	44.7663	-117.995	-24.0534	30.0847	-105.186	-41.8134	15.2687	-142.553	-20.013	51.541	-133.549	-43.9041	51.4783	-116.266	-67.5588	55.6488	-162.925	-27.7114	64.9475	-147.658	-41.9501	83.228	-137.524	-43.5747	114.282	-174.362	22.4819	74.7781	-190.436	35.8563	100.416	-154.611	43.9699	95.8283	
9	0.075	-142.826	50.1553	121.173	-115.52	53.6443	112.094	-96.2422	58.894	99.3855	-79.5562	61.2173	89.2436	-107.662	20.1115	58.4572	-95.2936	9.70985	45.5966	-82.0711	3.5524	24.6086	-118.216	-5.24324	53.8089	-103	-22.3177	47.0113	-87.2575	-42.4695	37.0992	-128.652	-22.7491	65.1669	-119.801	-44.1708	69.8096	-99.0901	-62.5574	78.8053	-148.97	-28.9337	78.3733	-133.354	-39.6419	102.933	-124.181	-33.2023	128.68	-175.992	12.8167	77.1042	-191.275	27.5415	96.2954	-160.015	44.4913	94.3863	
